<?xml version="1.0" encoding="UTF-8"?>
<svg id="Camada_1" xmlns="http://www.w3.org/2000/svg" version="1.1" viewBox="0 0 512 72">
  <!-- Generator: Adobe Illustrator 29.4.0, SVG Export Plug-In . SVG Version: 2.1.0 Build 152)  -->
  <defs>
    <style>
      .st0 {
        fill: #f9fcfb;
      }

      .st1 {
        fill: #f9dc1e;
      }

      .st2 {
        fill: #f52c22;
      }
    </style>
  </defs>
  <path class="st1" d="M41.09,2.55c-.61.33-1.29.34-2.04.05-.22-.09-.46-.11-.7-.05-1.02.27-1.84.26-2.42-.02,1.43-2.86,3.95-3.36,5.16.02h0Z"/>
  <path class="st2" d="M35.93,2.53c.58.28,1.4.29,2.42.02.24-.06.48-.05.7.05.75.3,1.43.28,2.04-.05.39.86.58,1.46.59,1.77.16,7.54.05,14.92-.34,22.16-1.2.31-2.82.49-4.88.52-.48,0-.66.31-.55.91-.09-.51-.24-.92-.46-1.24-.14-.2-.35-.34-.58-.39-5.41-1.2-10.43-2.45-16.24-2.75-4.47-.23-7.8-.63-11.1-3.11C4.73,18.32,2.29,15.46.21,11.86c-.17-.3-.24-.52-.19-.66.15-.44.67-.64,1.11-.41,1.46.77,2.34,1.24,2.67,1.4.16.08.33.14.51.17l4.58.83c.8.15,1.64.06,2.4-.25,3.11-1.26,5.79-3.06,8.46-5.19,3.88-3.12,8.33-4.32,13.34-3.6.72.11,1.3.04,1.75-.21.56-.31.93-.78,1.09-1.41h0Z"/>
  <path class="st0" d="M222.81,10.62c.26,0,.47.21.47.47v7.75c0,.26.21.47.47.47h9.6c.4,0,.73.33.73.73v11.06c0,.29-.23.52-.52.52h-9.96c-.18,0-.33.14-.33.33,0,2.45,0,7.55.02,15.27,0,1.18.14,2.14.41,2.88.4,1.08,1.43,1.8,2.59,1.81,2.62,0,5.19-.45,7.73-1.37.4-.14.83.15.83.58v10.69c0,.28-.17.54-.43.64-4.68,1.84-9.38,2.6-14.09,2.28-10.94-.77-13.12-7.61-13.12-17.26,0-4.05.02-9.2.04-15.44,0-.22-.18-.4-.4-.4h-4.19c-.32,0-.58-.25-.58-.57v-5.76c0-.41.2-.79.53-1.02l5.33-3.73c.67-.46,1.18-1.11,1.48-1.86l3.07-7.73c.08-.2.27-.33.49-.33h9.84Z"/>
  <path class="st1" d="M461.75,48.88v11.44c0,.35-.19.67-.49.85-4.17,2.4-8.82,3.61-13.95,3.63-13.15.08-21.39-6.88-22.17-20.38-.33-5.69.24-11.16,3.16-16.12,6.83-11.62,23.69-11.49,34.49-6.46.34.16.5.56.36.91l-4.32,10.86c-.14.35-.54.51-.87.34-3.09-1.49-6.07-2.34-8.93-2.55-8.44-.61-8.8,11.03-6.86,16.4,2.63,7.33,13.96,3.41,18.59.52.43-.27.99.05.99.55h0Z"/>
  <path class="st0" d="M91.29,48.85l.02,11.45c0,.35-.19.67-.49.85-4.17,2.4-8.82,3.62-13.95,3.66-13.16.09-21.4-6.85-22.2-20.35-.34-5.69.22-11.16,3.14-16.13,6.82-11.63,23.68-11.53,34.49-6.52.35.16.51.56.37.91l-4.31,10.87c-.14.35-.54.51-.87.34-3.09-1.48-6.07-2.33-8.94-2.53-8.45-.6-8.79,11.04-6.85,16.42,2.65,7.33,13.98,3.39,18.6.49.43-.27.99.05.99.55h0Z"/>
  <path class="st0" d="M139.65,64.04h-10.23c-.33,0-.63-.2-.77-.5l-2.07-4.77c-.11-.26-.45-.3-.64-.09-4.1,4.99-9.02,6.24-15.22,6.07-10.46-.27-14.45-10.22-12.14-19.07,2.62-10.09,15.93-10.02,24.18-10.29,1.07-.04,1.76-1.13,1.33-2.11l-.3-.69c-.56-1.3-1.74-2.21-3.14-2.42-4-.61-9.29,1.34-12.98,2.98-.42.18-.9,0-1.08-.42l-4.05-9.32c-.18-.43,0-.93.43-1.12,8.33-3.73,23.44-5.96,31.04-.58,3.99,2.82,6.04,6.92,6.14,12.29.06,3.09.08,12.92.05,29.49,0,.3-.25.55-.55.55M123.82,44.52c-3.78-.09-9.62.38-9.56,5.35.04,3.22,3.06,4.03,5.66,3.22,3.54-1.1,5.02-3.79,4.45-8.08-.04-.27-.27-.48-.55-.49h0Z"/>
  <path class="st0" d="M151.6,19.31h10.99c.3,0,.55.19.64.47l1.49,4.67c.08.27.44.31.6.08,4.1-6.02,13.07-7.02,19.39-5,7,2.24,9.37,8.27,9.66,15.03.07,1.45.09,10.67.08,27.68,0,.64-.05,1.14-.13,1.49-.05.19-.22.32-.41.32h-14.8c-.39,0-.71-.32-.71-.71,0-15.68,0-23.75,0-24.23,0-3.62-.86-8.24-5.6-7.69-5.18.61-5.91,6.61-5.98,10.73-.11,7.2-.13,14.36-.05,21.47,0,.24-.18.42-.42.42h-14.95c-.23,0-.42-.19-.42-.42V19.93c0-.34.27-.62.61-.62h0Z"/>
  <path class="st0" d="M285.33,44.34c.06,11.15-8.93,20.23-20.08,20.29l-3.87.02c-11.15.06-20.23-8.94-20.29-20.08l-.03-5.57c-.06-11.15,8.93-20.23,20.08-20.29l3.87-.02c11.15-.06,20.23,8.94,20.29,20.08l.03,5.57M257.09,41.66c.02,4.06.42,11.03,6.14,11.02,5.71-.02,6.09-6.98,6.08-11.05,0-4.06-.42-11.03-6.14-11.02-5.72.02-6.1,6.98-6.09,11.05h0Z"/>
  <path class="st0" d="M328.63,22.36c.09.05.14.16.1.26l-3.94,9.93c-.14.34-.53.49-.86.34-3.63-1.66-10.6-4.29-14.2-2.67-.55.25-.76.93-.42,1.44.42.64,1.07,1.15,1.96,1.51,3.63,1.47,6.9,2.87,9.81,4.19,5.39,2.45,8.06,6.65,8.02,12.62-.13,18-23.03,16.08-34.38,12.63-.4-.12-.67-.49-.67-.92v-11.94c0-.3.3-.49.57-.37,4.34,1.93,14.57,5.22,18.85,2.72.5-.3.69-.93.42-1.44-.39-.75-1.06-1.34-2.04-1.78-3.94-1.77-7.79-3.15-11.47-5.25-5.01-2.87-7.21-8.02-6.34-13.69,1.17-7.65,7.64-10.47,14.84-11.18,6.42-.63,13.01.57,19.78,3.61h0Z"/>
  <path class="st1" d="M369.4,19c.3.06.5.33.47.64l-1.34,13.92c-.02.28-.28.49-.56.46-4.47-.49-10.2-1.09-12.94,3.14-.91,1.4-1.31,4.1-1.2,8.1,0,.39.02,6.51.04,18.33,0,.26-.2.47-.46.47h-14.83c-.32,0-.58-.26-.58-.58V19.84c0-.29.23-.52.51-.52h10.94c.32,0,.61.2.71.51l1.89,5.88c.09.29.48.34.64.09,4.07-5.97,9.65-8.24,16.71-6.81h0Z"/>
  <path class="st1" d="M416.22,63.5c0,.3-.24.55-.55.55h-10.22c-.33,0-.64-.2-.77-.51l-2.07-4.76c-.11-.26-.46-.31-.64-.09-4.1,4.98-9.02,6.23-15.22,6.07-10.45-.27-14.44-10.22-12.13-19.06,2.62-10.09,15.93-10.02,24.18-10.28,1.07-.04,1.76-1.14,1.33-2.11l-.3-.69c-.56-1.3-1.74-2.21-3.13-2.42-4-.61-9.29,1.34-12.98,2.97-.41.19-.9,0-1.08-.42l-4.05-9.31c-.18-.43,0-.93.43-1.12,8.33-3.73,23.44-5.96,31.03-.58,3.99,2.82,6.04,6.92,6.14,12.29.06,3.09.07,12.92.04,29.48M399.79,44.48c-3.77-.11-9.61.33-9.57,5.28.02,3.21,3.03,4.03,5.63,3.24,3.53-1.08,5.03-3.75,4.48-8.03-.04-.27-.27-.48-.55-.49h0Z"/>
  <path class="st1" d="M508.59,49.97c.28-.11.58.11.58.4v10.67c0,.31-.18.59-.46.73-2.46,1.17-5.16,1.99-8.11,2.45-15.14,2.4-30.36-1.85-31.51-19.73-.67-10.59,2.43-21.47,13.76-24.74,11.13-3.22,24.9-.36,28.39,12.13,1.1,3.93.74,9.24.66,13.95,0,.17-.14.31-.32.31h-25.03c-1.27,0-1.96,1.49-1.13,2.46l1.51,1.78c1.21,1.42,2.92,2.33,4.78,2.55,6.25.73,11.04-.8,16.9-2.95M485.67,35.8h11.66c.07,0,.13-.06.13-.13v-.07c0-3.27-2.63-5.92-5.88-5.92h-.15c-3.25,0-5.88,2.65-5.88,5.92v.07c0,.07.06.13.13.13h0Z"/>
  <path class="st1" d="M41.34,26.48c-.28,10.32-.37,20.57-.28,30.73.04,4.57.78,8.91.52,13.26-.05.75.73,1.29,1.42.99l3.74-1.62s.09,0,.11.05l.08.18c.05.11,0,.23-.11.27-4.28,1.87-7.64,1.44-11.79,1.43-1.95,0-3.62-.7-5.03-2.08,1.3.74,2.61,1.28,3.94,1.62.77.19,1.29.02,1.57-.54.48-.91-.2-1.98-1.08-1.72-.28.08-.7.14-1.26.14-.46,0-.61-.61-.2-.81.4-.2,1-.15,1.79.16.25.1.52-.08.52-.35v-.8c0-.21-.17-.39-.38-.4-1.89-.08-3.43.32-4.6,1.18-.22.17-.36.42-.38.69-.02.28,0,.56.09.83-.61-.06-.89-.27-.84-.63.27-1.84,4.57-2.97,5.59-3.08.25-.03.46-.2.54-.44.58-1.9.86-3.69.85-5.37-.08-10.76-.15-21.51-.23-32.25-.11-.6.08-.9.55-.91,2.06-.04,3.68-.21,4.88-.52h0Z"/>
  <path class="st1" d="M48.15,68.64c-.04.11-.15.16-.26.13l-5.87-2.02c-.11-.04-.17-.15-.13-.26l.1-.29c.04-.11.15-.16.26-.13l5.87,2.02c.11.04.17.15.13.26l-.1.29h0Z"/>
</svg>